<?xml version="1.0" encoding="utf-8"?>
<!-- Svg Vector Icons : http://www.onlinewebfonts.com/icon -->
<!DOCTYPE svg PUBLIC "-//W3C//DTD SVG 1.1//EN" "http://www.w3.org/Graphics/SVG/1.1/DTD/svg11.dtd">
<svg version="1.1" xmlns="http://www.w3.org/2000/svg" xmlns:xlink="http://www.w3.org/1999/xlink" x="0px" y="0px" viewBox="0 0 256 256" enable-background="new 0 0 256 256" xml:space="preserve">
<metadata> Svg Vector Icons : http://www.onlinewebfonts.com/icon </metadata>
<g><g><path fill="#6700cf" d="M246,127.6c0,22.9-48.7,71.5-118,71.5c-67.9,0-118-47.9-118-71.5s50.9-70.8,118-70.8C198.1,56.8,246,104,246,127.6L246,127.6z M128,69.3c-31.7,0-56.8,25.8-56.8,58.3c0,32.4,25.8,58.3,56.8,58.3c31.7,0,56.8-25.8,56.8-58.3S159.7,69.3,128,69.3L128,69.3z M128,90.7c-19.9,0-36.1,16.2-36.1,36.9c0,20.6,16.2,36.9,36.1,36.9c19.9,0,36.1-16.2,36.1-36.9C164.1,107,147.9,90.7,128,90.7L128,90.7z"/></g></g>
</svg>